PathFileType	4	(X/Y/Z)	38_2_45_p0_0-292_filt_butterworth.trc
DataRate	CameraRate	NumFrames	NumMarkers	Units	OrigDataRate	OrigDataStartFrame	OrigNumFrames
59.0	59.0	4	27	m	59.0	0	292
Frame#	Time	RHip			RKnee			RAnkle			RBigToe			RSmallToe			RHeel			LHip			LKnee			LAnkle			LBigToe			LSmallToe			LHeel			Neck			Head			Nose			RShoulder			RElbow			RWrist			RThumb			RIndex			RPinky			LShoulder			LElbow			LWrist			LThumb			LIndex			LPinky			
		X1	Y1	Z1	X2	Y2	Z2	X3	Y3	Z3	X4	Y4	Z4	X5	Y5	Z5	X6	Y6	Z6	X7	Y7	Z7	X8	Y8	Z8	X9	Y9	Z9	X10	Y10	Z10	X11	Y11	Z11	X12	Y12	Z12	X13	Y13	Z13	X14	Y14	Z14	X15	Y15	Z15	X16	Y16	Z16	X17	Y17	Z17	X18	Y18	Z18	X19	Y19	Z19	X20	Y20	Z20	X21	Y21	Z21	X22	Y22	Z22	X23	Y23	Z23	X24	Y24	Z24	X25	Y25	Z25	X26	Y26	Z26	X27	Y27	Z27	
0	0.0	0.39401616502622155	0.740857708452618	0.5333409777861029	0.39701665262386465	0.905473951496135	0.9482075468894966	0.3592005170378458	1.0768653255422838	1.3697352679179922	0.31610298207654763	0.8842321183259297	1.432211561762056	0.37937583179723433	0.8874725934713188	1.43349432336986	0.3525922985379573	1.1601528547891609	1.4065181816626862	0.1853797299882337	0.7714180357207541	0.5255952490373146	0.18665182216768947	0.9249647882530998	0.947473283822984	0.19498491907527993	1.067627557305772	1.3399828443614488	0.1760041110971946	0.9141123701730892	1.4222279435767016	0.12210158361665252	0.9353646489621568	1.412775840819653	0.2107510286855189	1.157026230650326	1.4092108456423684	0.3142290742117404	0.5605503319205895	-0.09618500324618443	0.34937268960141415	0.46678525713472974	-0.3298981140323152	0.3197461507042116	0.4133903615587805	-0.18911305334141026	0.48160119920995653	0.5649286289713273	0.01230310840713864	0.5124406051836945	0.6168663728021888	0.2899538913034444	0.32170239996596095	0.5956148988744291	0.487815497434222	0.21919354417221662	0.6403760234094009	0.5588182592615876	0.21520842524432732	0.6431831610104898	0.5703958872743445	0.23501163320032803	0.6175817502837488	0.6034476004671337	0.13089253294940728	0.6363012744248647	-0.024614898310533536	0.09063833404969512	0.6531339034826633	0.2459515856602627	0.1982838164174692	0.6421060485147332	0.46059738176818726	0.24823446732368454	0.5815961553517174	0.548722296117546	0.25159795557816245	0.589054737045085	0.5869641492698232	0.228922520412199	0.6127876617443199	0.5650832048568943
1	0.0169491525423728	0.39474504785908815	0.732263897337761	0.5357180850341858	0.3980609622208321	0.908287900860959	0.9527637308558486	0.3606005152931864	1.0647680361368677	1.3664968136349076	0.3162165868076956	0.88443769055059	1.43217985779498	0.37879938146144787	0.8919130397701847	1.433699212569067	0.3524137098213362	1.1607169281142462	1.4066862472289217	0.18512708572378825	0.7720019872453986	0.5260959257548458	0.18682735160072514	0.9254021395811481	0.9475553101731891	0.1948180199328584	1.0685570358495373	1.3374947129011694	0.17368192372109637	0.9044206439486698	1.417924115270487	0.12105240686751217	0.9414670001907476	1.4094368010942206	0.21133852822219096	1.158199254735227	1.4098311770815881	0.31424562628771247	0.5605252018058868	-0.0962680614515123	0.3474960430328723	0.4643231631095258	-0.32953555629199727	0.3198653548316961	0.41341583229579526	-0.18920854701366008	0.48139584567435784	0.5663224942110653	0.012094432694030816	0.5127313202959611	0.6170326734607199	0.28988185011536927	0.32169831792218195	0.5959288075429425	0.48986344313557073	0.22055703857938752	0.6280645960610367	0.5585947110907005	0.2183884876439461	0.6293968392096551	0.5730994001757446	0.2385876231506996	0.617054730023789	0.606513062841426	0.13281835248395704	0.6375726662060879	-0.02590889283063829	0.09273996325851107	0.6459482969469785	0.24844643786404114	0.20249236551356609	0.6243643746488148	0.46542076989274184	0.2544894887080156	0.5903648199193513	0.5560860721714045	0.2546674537689779	0.5935511922516937	0.592266369374392	0.23243286264290258	0.6059247654579436	0.5665529743980448
2	0.0338983050847457	0.39517553423435625	0.7273828825210025	0.5374964935179674	0.3987739190216089	0.9103536944794447	0.9562240750768584	0.36142859109812236	1.0575659764843737	1.3645771328897545	0.31628071313426687	0.884524612606759	1.4321865804475897	0.3785017326120482	0.8938338928541647	1.434090169645106	0.3523669993709585	1.1608186193940153	1.4071103714526507	0.18500882876043062	0.7720048680997125	0.5278334111199449	0.18697877417879086	0.9258494487315652	0.9477291897961229	0.1947282830120627	1.069154173482733	1.3360410807980798	0.17242975696193918	0.898480555352265	1.4148560966703778	0.12000077770167786	0.9474408877980889	1.4081649475911664	0.21175148758550988	1.1588708838909865	1.4108890679284376	0.314305839119281	0.5605496913953063	-0.0959722736533858	0.3453892871423967	0.4630577099384038	-0.32930661372921144	0.3199068493768377	0.41338203037913246	-0.18920996322961772	0.4806877174981202	0.5696862345897178	0.011588654055214632	0.5123579320006293	0.6159204526686275	0.2899024843649275	0.3219065753059368	0.5947021837626737	0.491098883045602	0.22255252848991167	0.6217789501100328	0.5599298813785883	0.22140114578091502	0.6193284382201891	0.5762778981263579	0.24112395085638322	0.6167975807367323	0.6081949859892135	0.13542344107820287	0.6410093018596127	-0.026594459391031357	0.09439929731520211	0.6428300983228128	0.2510722872803988	0.2053058392777747	0.6175500559341189	0.4699843337159177	0.25865607726384554	0.596407021606692	0.5618739058027169	0.25684567891262045	0.5976958688765351	0.5954943987669566	0.23400359143278027	0.6043950465977627	0.5694494895640955
3	0.0508474576271186	0.3953043668231417	0.7264076159970726	0.5381916798776201	0.3990603927201171	0.9113028955204627	0.9583750457339348	0.3616477282645903	1.0555787119811395	1.3640604445512816	0.3162851366635232	0.8845068939617045	1.4322257162800476	0.378675492793096	0.8921936357841291	1.4340864926407069	0.3524859928694299	1.160457114076616	1.4072352380912436	0.18497076721147115	0.770566404491409	0.5304839423021046	0.1870415086993854	0.9263336664517581	0.9482556220677936	0.19471173772747047	1.069334535289117	1.3356627970451425	0.1722218131381452	0.8966511017809197	1.4134677619497666	0.11924114434805073	0.9516385456122902	1.4086146172951415	0.21194801959940457	1.1590998409945947	1.412016260063961	0.314307872888115	0.5606416956206862	-0.0950671823413105	0.343400339791186	0.46281799287903735	-0.328889640681181	0.3194701933927719	0.4132671809539042	-0.18900553085527713	0.47947892210568543	0.5744104889736011	0.010875662976809959	0.510834988780978	0.6128450989318042	0.29006226948626557	0.3224714640762337	0.5910801709203749	0.4917005304994666	0.22536004455036485	0.6223779608658048	0.5633157295102124	0.22373351160938598	0.6144053944233803	0.579992846967168	0.24189526514825968	0.6168932485835301	0.6087823831757038	0.1380036265987294	0.6458447369063623	-0.02652671210711914	0.09590961802235165	0.6444462169179341	0.2532195472076502	0.206126813943112	0.621533476336456	0.47395491114116073	0.2604840836527743	0.5991410032598709	0.5659479549408393	0.2573404093524629	0.6004570608062969	0.5966071011652193	0.23364267333762917	0.6079301774344805	0.5742160233943797
